<svg width="288" height="288" viewBox="0 0 288 288" fill="none" xmlns="http://www.w3.org/2000/svg">
<circle cx="144.061" cy="143.968" r="143.632" fill="white"/>
<rect x="74.0715" y="154.541" width="24.8354" height="42.8975" rx="4.51552" fill="#000091"/>
<rect x="112.453" y="94.7109" width="24.8354" height="102.728" rx="4.51552" fill="#000091"/>
<rect x="150.835" y="80.0352" width="24.8354" height="117.404" rx="4.51552" fill="#E1000F"/>
<rect x="189.218" y="127.447" width="24.8354" height="69.9906" rx="4.51552" fill="#E1000F"/>
<path fill-rule="evenodd" clip-rule="evenodd" d="M207.235 32.8314C205.167 36.4705 204.133 38.2901 202.443 38.8249C200.753 39.3598 198.751 38.4152 194.747 36.5262C178.754 28.982 161.243 25.0864 143.485 25.1727C122.707 25.2737 102.318 30.8229 84.3551 41.2662C66.3918 51.7095 51.4819 66.6817 41.1135 84.6883C30.7451 102.695 25.281 123.106 25.2666 143.885C25.2521 164.663 30.6878 185.082 41.0312 203.103C51.3745 221.124 66.2636 236.117 84.2123 246.585C102.161 257.053 122.542 262.631 143.32 262.761C161.077 262.872 178.595 259 194.597 251.478C198.604 249.595 200.608 248.653 202.297 249.19C203.986 249.728 205.017 251.549 207.081 255.191L210.411 261.068C212.536 264.819 213.599 266.695 213.018 268.563C212.438 270.431 210.581 271.334 206.867 273.139C187.061 282.769 165.267 287.734 143.164 287.595C118.042 287.438 93.4012 280.695 71.7001 268.038C49.999 255.381 31.9972 237.254 19.4915 215.466C6.98583 193.677 0.413719 168.99 0.431187 143.867C0.448655 118.745 7.05509 94.0666 19.5911 72.2955C32.127 50.5244 50.154 32.4221 71.8727 19.7956C93.5914 7.16898 118.242 0.45978 143.364 0.337636C165.467 0.230171 187.254 5.22495 207.047 14.8822C210.758 16.6931 212.614 17.5986 213.192 19.4673C213.77 21.3361 212.704 23.2102 210.574 26.9585L207.235 32.8314Z" fill="#000091"/>
<path fill-rule="evenodd" clip-rule="evenodd" d="M250.104 90.4174C243.083 76.5138 233.41 64.1535 221.661 54.0173C218.308 51.1252 216.632 49.6791 216.434 47.9178C216.237 46.1566 217.48 44.4725 219.965 41.1042L223.976 35.6685C226.536 32.1993 227.816 30.4647 229.759 30.234C231.701 30.0033 233.282 31.3313 236.444 33.9875C251.3 46.4665 263.499 61.8478 272.273 79.2224C282.408 99.2914 287.689 121.459 287.693 143.942C287.697 166.425 282.423 188.594 272.296 208.667C263.528 226.045 251.334 241.43 236.482 253.914C233.321 256.572 231.741 257.9 229.798 257.67C227.855 257.44 226.575 255.706 224.014 252.238L220.001 246.803C217.514 243.436 216.271 241.752 216.468 239.991C216.664 238.23 218.34 236.783 221.692 233.89C233.438 223.749 243.106 211.386 250.123 197.48C258.499 180.878 262.861 162.542 262.858 143.946C262.855 125.351 258.486 107.016 250.104 90.4174Z" fill="#8B8BF6"/>
</svg>
